<svg width="120" height="120" viewBox="0 0 120 120" fill="none" xmlns="http://www.w3.org/2000/svg">
<path d="M106.107 2.72656H13.9123H0V62.8958H21.1505V32.8016H16.9692L15.672 20.0694L15.5475 18.8143H21.1505H26.7755H51.3942H68.6067H93.2255H98.8505H103.981L104.475 18.8178L103.032 32.8016H98.8505V62.8958H120V2.72656H106.107Z" fill="#374149"/>
<path d="M69.5396 21.4609C69.5412 21.4663 69.5441 21.471 69.5469 21.4755H69.5047C71.7734 26.8195 76.2732 30.9822 81.823 32.8005C82.8162 33.1384 83.829 33.382 84.879 33.5502V62.8947V92.2192C76.329 93.6072 69.5787 100.357 68.1725 108.926H51.823C50.435 100.357 43.6859 93.6072 35.1165 92.2192V62.8949V33.5505C36.1665 33.3822 37.1982 33.1384 38.1725 32.8007C42.9388 31.2445 46.8964 27.9632 49.3749 23.7013C49.4288 23.6099 49.4921 23.5255 49.5451 23.433C49.5718 23.3856 49.5917 23.335 49.6184 23.2874C49.9395 22.7116 50.2428 22.1228 50.51 21.5132H50.4917C50.4971 21.5005 50.5044 21.4884 50.51 21.4757H26.7734V32.8007V62.8949V112.844C26.7734 115.282 28.7609 117.27 31.198 117.27H88.8167C91.2537 117.27 93.2232 115.282 93.2232 112.844V62.8949V32.8007V21.4757H76.1872L69.5396 21.4609Z" fill="#374149"/>
<path d="M56.2141 51.495H53.2148V60.588H45.5078V62.895V65.2012H53.2148V74.276H56.2141V65.2012H59.552V74.276H62.5513V69.757L62.5642 68.0266L62.5907 67.0901L62.7583 67.2073L67.127 70.5635L71.2333 73.6948L73.727 75.6448V75.6073L73.7645 75.6448V69.701L68.0078 65.2948L67.3138 64.77L65.3455 63.2513L64.9682 62.9639L64.8639 62.8713L67.3138 61.02L68.0078 60.4762L73.7645 56.0698V52.3948L73.7812 50.4148L73.7875 50.1748L73.783 50.1785V50.1638L73.7645 50.1823V50.1445L67.127 55.2258L62.7583 58.5637L62.6254 58.6636L62.5513 58.6966V51.495H59.552V60.588H56.2141V51.495Z" fill="#374149"/>
<path d="M60.5781 84.457H58.7031V96.7756H60.5781V84.457Z" fill="#374149"/>
<path d="M60.5781 32.8019V28.9961H58.7031V32.8019V41.3146H60.5781V32.8019Z" fill="#374149"/>
</svg>
