<svg width="121" height="120" viewBox="0 0 121 120" fill="none" xmlns="http://www.w3.org/2000/svg">
<g clip-path="url(#clip0_4836_46059)">
<path d="M74.5848 71.3888H78.6289V60.8977H82.6543V33.5564V33.473V33.4355H78.6289V30.4912V30.4819V30.4453H74.6342H74.6223H74.5848V33.4355H70.6041H70.5922H70.5547V60.8977H74.5848V71.3888Z" fill="#374149"/>
<path d="M110.647 67.7927H114.692V57.3034H118.718V23.9069V23.8042V23.7677H114.692V20.8279V20.8188V20.7812H110.697H110.685H110.647V23.7677H106.667H106.655H106.617V57.3034H110.647V67.7927Z" fill="#374149"/>
<path d="M39.0801 87.5972H43.1252V75.1488H47.1543V47.8066V47.7232V47.6857H43.1252V38.4682V38.4398V38.4023H39.1298H39.1178H39.0801V47.6857H35.1041H35.0922H35.0547V75.1488H39.0801V87.5972Z" fill="#374149"/>
<path d="M56.2913 81.2336H60.3362L60.3298 77.1897H64.3269V31.743V31.6047V31.5672H60.2886L60.2759 20.8389V20.8188V20.7812H56.2805H56.2688H56.2313L56.2449 31.567H52.276L52.2641 31.566V31.567H52.2266V77.1897H56.2852L56.2913 81.2336ZM56.2709 62.4606V35.6111H60.282V73.1448H56.285L56.2709 62.4606Z" fill="#374149"/>
<path d="M23.2434 94.5941H27.2883V92.0598H31.3193V53.2934V53.1744V53.1378H27.2883V34.8823V34.8275V34.79H23.2929L23.2809 34.7891V34.79H23.2434V53.138H19.2682H19.2565H19.2188V92.0598H23.2434V94.5941ZM23.2636 88.0149V57.1827H27.2745V88.0149H23.2636Z" fill="#374149"/>
<path d="M93.1248 62.1531H97.1696V55.2573H101.193V16.491V16.3729V16.3354H97.1694V4.97453V4.93984V4.90234H93.1742H93.1623H93.1248V16.3354H89.1432L89.1313 16.3345V16.3354H89.0938V55.2571H93.1248V62.1531ZM93.1377 51.2125V20.3795H97.1495V51.2125H93.1377Z" fill="#374149"/>
<path d="M120.594 108.088V108.051H9.47516H9.17328V3.11664V2.79625V2.75875H0.657031L0.63125 2.75781V2.75875H0.59375V117.243H5.80203H120.594V108.117V108.088Z" fill="#374149"/>
<path d="M53.5296 102.554L94.7705 84.3409L95.7712 86.6068L96.2491 87.7339L96.2618 87.7175L96.2794 87.7569L102.361 79.4366L105.402 75.3066L105.382 75.3048L105.407 75.2698L95.2219 74.1676L90.0638 73.5898L90.072 73.61L90.0291 73.6053L91.5368 77.0204L50.3391 95.2156L50.3316 95.2184L50.2969 95.2339L53.5296 102.554Z" fill="#374149"/>
</g>
<defs>
<clipPath id="clip0_4836_46059">
<rect width="120" height="120" fill="white" transform="translate(0.59375)"/>
</clipPath>
</defs>
</svg>
