<svg width="121" height="120" viewBox="0 0 121 120" fill="none" xmlns="http://www.w3.org/2000/svg">
<g clip-path="url(#clip0_4836_45999)">
<path d="M36.8525 0C31.1652 0 26.5391 4.62609 26.5391 10.3134V22.7133V23.757V95.148V96.1917V110.278C26.5391 115.635 30.9043 120 36.2612 120H85.3398C90.6955 120 95.0607 115.635 95.0607 110.278V96.1917V95.148V23.757V22.7133V10.3134C95.0607 4.62609 90.4346 0 84.7482 0H36.8525ZM60.8 112.122C57.4784 112.122 54.7831 109.426 54.7831 106.105C54.7831 102.765 57.4784 100.07 60.8 100.07C64.1389 100.07 66.8352 102.765 66.8352 106.105C66.8352 109.426 64.1389 112.122 60.8 112.122ZM73.5479 13.0784V14.1916C73.5479 14.8528 73.0086 15.3912 72.3484 15.3912H55.4431C54.7831 15.3912 54.2614 14.8528 54.2614 14.1916V13.0784C54.2614 12.4174 54.7831 11.8964 55.4431 11.8964H72.3484C73.0086 11.8964 73.5479 12.4174 73.5479 13.0784ZM49.9484 11.7572C50.9921 11.7572 51.8436 12.5911 51.8436 13.635C51.8436 14.6787 50.9921 15.5311 49.9484 15.5311C48.9045 15.5311 48.0697 14.6787 48.0697 13.635C48.0697 12.5911 48.9045 11.7572 49.9484 11.7572ZM90.713 22.2098V95.9227V96.1917H30.887V95.9227V95.148V22.7133V22.2096H90.5684L90.713 22.2098Z" fill="#4B4B4B"/>
<path d="M46.3759 71.2612V71.2996H75.227V68.3252H46.5013L46.4134 68.3242V68.3252H46.3759V71.253L46.375 71.2612H46.3759Z" fill="#4B4B4B"/>
<path d="M69.9151 75.0898H51.683C51.3235 75.0898 51.0312 75.3819 51.0312 75.7428V80.6389C51.0312 80.9987 51.3233 81.2909 51.683 81.2909H69.9151C70.2748 81.2909 70.5669 80.9989 70.5669 80.6389V75.7428C70.5669 75.3821 70.2748 75.0898 69.9151 75.0898Z" fill="#4B4B4B"/>
<path d="M60.8001 61.8587C68.7541 61.8587 75.2258 55.3878 75.2258 47.4338C75.2258 39.4798 68.7538 33.0078 60.8001 33.0078C52.8459 33.0078 46.375 39.4798 46.375 47.4338C46.375 55.3878 52.8461 61.8587 60.8001 61.8587ZM69.2687 55.4673C69.0845 55.0984 68.8605 54.7543 68.5802 54.4796C68.4372 54.3395 68.256 54.2488 68.0985 54.1281C68.0024 54.0547 67.9073 53.9823 67.8055 53.9148C66.3745 52.9524 64.5334 52.5076 63.2406 51.3357C63.2406 50.8698 63.2406 50.4045 63.2406 49.9386C63.9977 49.6531 64.1551 48.2879 64.3164 47.6534C65.4876 48.0057 65.9169 45.5441 65.1761 44.9462C65.8694 43.4026 65.5956 41.8489 64.2332 40.8235C63.9292 40.5945 63.5237 40.4628 63.2784 40.2303C63.0112 39.9786 62.8663 39.6013 62.5771 39.3467C62.016 38.855 61.3054 38.6534 60.5666 38.6518C59.5944 38.6518 57.9538 39.4866 57.1171 40.6285C57.1171 40.632 57.1171 40.632 57.1171 40.632C56.2959 41.7371 55.7584 43.6452 56.4763 44.9459C55.6487 45.6289 56.2328 47.6532 57.3379 47.6532C57.4002 48.2675 57.7396 49.6773 58.4301 49.9384C58.4301 50.4043 58.4301 50.8695 58.4301 51.3355C57.0201 52.6374 55.0049 53.0879 53.4616 54.1937C53.219 54.3685 52.8353 54.8565 52.4884 55.437C52.4589 55.4802 52.4308 55.5205 52.4015 55.5634C50.3608 53.4568 49.0973 50.5911 49.0973 47.4336C49.0973 40.9801 54.3477 35.7303 60.8005 35.7303C67.2541 35.7303 72.5038 40.9798 72.5038 47.4336C72.5038 50.1866 71.5396 52.7134 69.9412 54.7128C69.7284 54.972 69.5057 55.2247 69.2687 55.4673Z" fill="#4B4B4B"/>
</g>
<defs>
<clipPath id="clip0_4836_45999">
<rect width="120" height="120" fill="white" transform="translate(0.796875)"/>
</clipPath>
</defs>
</svg>
