<svg width="121" height="120" viewBox="0 0 121 120" fill="none" xmlns="http://www.w3.org/2000/svg">
<g clip-path="url(#clip0_4836_46019)">
<path d="M79.4922 23.8959V23.9142H89.5136V31.6055C92.7196 28.7501 95.8178 26.1096 98.7264 23.7394V15.832H79.4922V23.8467V23.8959Z" fill="#374149"/>
<path d="M98.7279 69.4554V69.4289L94.9568 73.1871L91.6298 69.8463C90.859 69.0755 90.2702 68.1994 89.8472 67.2691C89.73 66.9991 89.621 66.7235 89.5331 66.439V66.4847C89.5287 66.4692 89.5205 66.4544 89.5148 66.438V110.65V110.902H10.0812H9.61242V24.4261V23.9145H19.6338V15.832H0.398438V118.984H98.7277V89.6051L98.7415 69.4416L98.7279 69.4554Z" fill="#374149"/>
<path d="M30.5969 27.3491H68.5281C70.6961 27.3491 72.4612 25.5849 72.4612 23.416V12.8141H64.6483C63.1403 6.06641 56.9441 1.01562 49.5623 1.01562C42.1811 1.01562 35.9849 6.06641 34.4763 12.8141H26.6641V23.4158C26.6641 25.5847 28.4282 27.3491 30.5969 27.3491ZM49.5623 5.555C52.068 5.555 54.1021 7.58844 54.1021 10.0941C54.1021 12.5998 52.068 14.6333 49.5623 14.6333C47.0573 14.6333 45.0231 12.5998 45.0231 10.0941C45.0231 7.58844 47.0573 5.555 49.5623 5.555Z" fill="#374149"/>
<path d="M18.436 56.1468C19.5345 58.1901 22.1529 58.6711 24.6853 59.1361C26.7874 59.5225 28.7724 59.8858 29.4221 61.0945C29.9091 62.0008 29.9981 62.9264 29.6785 63.7715C29.3452 64.6532 28.5771 65.437 27.4573 66.0393C27.2714 66.1392 26.8796 66.3267 26.3468 66.4577C26.258 66.4797 26.161 66.4945 26.0677 66.5116C25.8982 66.5428 25.7335 66.5639 25.5713 66.5749C25.38 66.5894 25.1869 66.5894 24.99 66.573C24.9031 66.5657 24.8189 66.5547 24.7346 66.5411C24.4617 66.4961 24.1908 66.4157 23.9262 66.2866C23.8922 66.2702 23.8556 66.2592 23.8217 66.2418C23.6834 66.1666 23.5479 66.0707 23.4162 65.9671C23.366 65.9268 23.3173 65.8849 23.2697 65.8418C22.9833 65.5854 22.714 65.2596 22.4815 64.8274C22.2481 64.3933 21.5541 62.8371 22.4192 61.0298L22.6278 60.596L21.477 60.0466L21.2353 60.2983C19.1424 62.4827 19.5912 64.9225 20.1202 65.9069C21.3535 68.2003 23.6276 69.1324 26.3588 68.463C27.0251 68.2999 27.6797 68.0454 28.3015 67.7123C28.4553 67.6298 28.5734 67.5281 28.7173 67.4402C28.9022 67.3268 29.0806 67.2124 29.2465 67.0933C29.4085 66.9761 29.5704 66.8625 29.7188 66.738C29.9606 66.5357 30.1702 66.3288 30.3652 66.12C30.4805 65.9964 30.5932 65.8739 30.6966 65.7454C30.8724 65.5284 31.0226 65.3135 31.1562 65.1009C31.257 64.9415 31.3486 64.7824 31.4328 64.6195C31.5335 64.4252 31.616 64.2384 31.6873 64.0582C32.3208 62.4689 32.2531 60.787 31.5417 59.4649C30.5503 57.6194 28.061 57.146 25.654 56.6892C23.4567 56.2715 21.1864 55.8403 20.4017 54.3829C20.2946 54.1825 19.4203 52.3835 21.8993 51.0496C22.3535 50.8052 22.7773 50.6339 23.1581 50.5406C23.6864 50.4105 24.1324 50.4269 24.5114 50.5917C24.5142 50.5936 24.5168 50.5945 24.5187 50.5954C24.896 50.7628 25.2054 51.0796 25.4609 51.5531C25.7684 52.1264 25.8005 52.822 25.5607 53.6789L25.448 54.0771L26.5247 54.5622L26.7574 54.2693C27.9338 52.7925 27.7564 51.16 27.2473 50.2127C27.1758 50.08 27.064 49.9947 26.9789 49.8775C26.8737 49.7299 26.7713 49.5808 26.6447 49.4571C26.513 49.3291 26.3637 49.2274 26.2109 49.1247C26.0871 49.0432 25.9592 48.9691 25.8225 48.9049C25.6514 48.8243 25.4801 48.7493 25.2896 48.6982C25.1358 48.656 24.9685 48.6396 24.8025 48.6175C24.221 48.5388 23.5967 48.5379 22.8973 48.7089C22.2893 48.8573 21.6769 49.0971 21.0781 49.4193C18.2639 50.932 17.1532 53.7609 18.436 56.1468Z" fill="#374149"/>
<path d="M33.2323 54.2576C33.7887 55.9559 34.4205 57.8822 35.1284 59.1987C36.2123 61.2148 37.6545 62.1185 39.1887 61.7421C39.4589 61.676 39.7308 61.5691 39.9998 61.4245C42.7336 59.955 42.8784 55.8068 42.1734 52.7004L42.0698 52.2455L42.0673 52.2345L42.0635 52.2162L40.4046 52.6493L40.3294 52.6685H40.3303L40.312 52.6741L40.4569 53.1518C41.138 55.4013 40.9411 58.548 39.6659 59.2348C39.5332 59.3053 39.4013 59.3564 39.2768 59.3876C39.0755 59.4361 38.8887 59.4143 38.7082 59.3627C38.6761 59.3538 38.644 59.3501 38.614 59.3381C38.0426 59.1248 37.5832 58.4939 37.2701 57.9127C36.6218 56.7061 36.0541 54.9061 35.5552 53.3184C35.1159 51.9232 34.7011 50.6048 34.2734 49.811L34.05 49.3943L34.0289 49.3505L34.027 49.3523L34.0179 49.3359L33.5749 49.6444C33.0054 50.0419 32.6913 50.453 32.2795 51.1177L32.1328 51.3539L32.2645 51.5991C32.5134 52.0594 32.8622 53.126 33.2323 54.2576Z" fill="#374149"/>
<path d="M33.1099 45.3745C32.9571 45.0906 32.7181 44.8799 32.4497 44.717C32.4361 44.7088 32.4242 44.6997 32.4103 44.6912C32.2814 44.6172 32.1476 44.5623 32.0049 44.5202C31.9819 44.5138 31.9601 44.5084 31.9371 44.5028C31.7916 44.4662 31.647 44.4433 31.4951 44.4423C31.4913 44.4423 31.4885 44.4414 31.485 44.4414C31.4714 44.4414 31.4583 44.4461 31.4447 44.4461C31.313 44.4496 31.182 44.4433 31.0512 44.4754C30.9082 44.5103 30.7699 44.5633 30.641 44.632C29.7858 45.0916 29.4399 46.2459 29.8995 47.1011C30.0513 47.384 30.2913 47.5937 30.5604 47.7557C30.5742 47.7639 30.5862 47.773 30.5998 47.7815C30.7289 47.8546 30.8637 47.9095 31.0071 47.9516C31.0292 47.958 31.0512 47.9636 31.0742 47.969C31.2206 48.0055 31.3671 48.0285 31.5209 48.0285C31.5237 48.0285 31.5256 48.0295 31.5291 48.0295C31.541 48.0295 31.552 48.0259 31.5649 48.0259C31.6995 48.0231 31.8349 48.0285 31.9695 47.9955C32.1096 47.9617 32.2432 47.9104 32.3677 47.8427C33.2381 47.3748 33.5778 46.2442 33.1099 45.3745Z" fill="#374149"/>
<path d="M50.5082 42.0765L50.3882 41.7148L50.0038 41.7507C49.8955 41.7634 49.7868 41.7873 49.6788 41.8112C49.1615 41.9319 48.5491 42.2689 48.2845 42.8577C48.1159 42.8825 47.9355 42.9181 47.7552 42.9528C47.1775 43.0974 46.6007 43.3264 46.0352 43.6264C43.7985 44.8295 43.1741 46.9937 43.0293 48.5933C42.8847 50.3609 43.282 52.3688 44.0758 53.8236C44.8066 55.1886 45.7476 56.1317 46.7584 56.6112C47.0001 56.7303 47.2427 56.8412 47.4927 56.9061L46.937 56.9738L46.829 57.2028C46.0354 58.7537 45.9995 60.1974 46.6973 61.4956C47.5031 62.9989 49.2709 63.6955 51.0984 63.2516C51.5186 63.1426 51.9398 62.9743 52.3607 62.758C54.3447 61.6878 56.2809 59.1022 54.1881 52.8134C52.6853 48.617 51.1701 44.0959 50.5082 42.0765ZM50.8762 61.2402C50.4175 61.3051 49.817 61.2566 49.2648 60.83C49.2311 60.8035 49.1962 60.7798 49.1613 60.7503C49.0652 60.6652 48.9709 60.5673 48.8795 60.4555C48.8402 60.4088 48.8034 60.3493 48.7659 60.2963C48.6871 60.1873 48.6084 60.0784 48.5359 59.9448C48.1277 59.1985 47.8989 58.5137 47.995 57.4306L48.0316 56.9738C48.0864 56.9783 48.1396 56.9602 48.1945 56.9612L48.2659 56.9647C48.3409 56.9647 48.4124 56.9445 48.4858 56.9389C48.6433 56.9272 48.8043 56.9389 48.9573 56.9023C49.2456 56.8299 49.5222 56.7219 49.7866 56.5775C50.6336 56.1242 51.2331 55.4082 51.6123 54.4562C51.6984 54.252 51.7844 54.0479 51.8512 53.8208L51.952 54.1011C53.0819 57.3348 53.7913 59.8843 51.9034 60.9062C51.6627 61.0269 51.423 61.1232 51.1701 61.1834C51.0932 61.2027 51.0072 61.2209 50.9174 61.2345C50.9036 61.2373 50.89 61.2383 50.8762 61.2402ZM46.3361 52.4769C45.591 51.0943 45.2172 49.5317 45.2896 48.1721C45.3501 47.187 45.6859 45.864 46.9366 45.1902C47.2258 45.0336 47.5143 44.9138 47.8145 44.8414C48.1038 44.7699 48.3923 44.7453 48.6925 44.7573L49.5588 47.2712C50.4963 50.1678 50.8567 53.6314 49.4388 54.3894C49.3061 54.4616 49.1861 54.5091 49.0652 54.545C48.8629 54.5935 48.6531 54.5771 48.4424 54.5286C48.404 54.5195 48.3655 54.5141 48.3271 54.5019C48.1195 54.4377 47.9106 54.3308 47.7037 54.1789C47.6882 54.167 47.6716 54.1597 47.6561 54.1468C47.193 53.7915 46.7409 53.2273 46.3361 52.4769Z" fill="#374149"/>
<path d="M58.6859 38.5578C58.7745 38.5095 58.8598 38.4755 58.9395 38.4552C59.0566 38.4268 59.1722 38.435 59.291 38.48C59.2929 38.4809 59.2948 38.4809 59.2966 38.4809C59.6564 38.6202 60.0417 39.1091 60.54 40.0346C60.8923 40.692 61.167 41.592 61.4316 42.4634C61.7072 43.3681 61.992 44.3038 62.382 45.0298C63.6398 47.3673 65.0297 47.5822 65.9735 47.3506C66.2041 47.2939 66.4385 47.2023 66.6694 47.0787C69.2897 45.6687 69.6476 41.678 68.8411 38.3464L68.7312 37.895L68.7302 37.8896L68.7258 37.8713L67.0723 38.3035L67.0001 38.3218V38.3225L66.9818 38.3272L67.1264 38.8051C67.8075 41.0546 67.6106 44.2011 66.3356 44.8869C66.2423 44.9373 66.1533 44.9738 66.0701 44.9933C65.7668 45.0673 65.333 44.9933 64.6629 43.748C64.2755 43.0276 63.9623 42.047 63.6612 41.1012C63.3581 40.1527 63.0459 39.1733 62.6503 38.4371C62.438 38.0424 62.2111 37.7248 61.9802 37.4272C61.9739 37.419 61.9695 37.4089 61.9629 37.4014C61.7946 37.1853 61.6151 37.0224 61.4365 36.8586C61.3451 36.7735 61.2541 36.68 61.159 36.6087C60.9926 36.4852 60.8203 36.3936 60.6464 36.313C60.5302 36.2581 60.413 36.2103 60.293 36.1747C60.12 36.1245 59.9442 36.0896 59.7638 36.0786C59.719 36.0758 59.6759 36.0547 59.6302 36.0547C59.502 36.0547 59.3674 36.083 59.2348 36.1039C59.1523 36.1159 59.0754 36.095 58.9922 36.1149C58.7184 36.1827 58.4346 36.2935 58.1508 36.4463C57.2536 36.9287 56.6229 37.6967 56.2338 38.7148C56.1441 38.9375 56.0543 39.1606 55.9875 39.4088L55.5877 38.2452L55.227 38.2625C55.1327 38.267 55.0355 38.2817 54.9368 38.3063C54.3326 38.4547 53.6084 39.0088 53.4178 39.4684L53.3438 39.6488L53.4143 39.8293C54.132 41.6476 54.8735 43.756 55.5281 45.6153C56.397 48.0854 57.1477 50.2187 57.6438 51.1414L57.8719 51.5645L58.2949 51.3373C59.0098 50.952 59.5235 50.3909 59.7021 49.7947L59.7598 49.6032L59.6655 49.4284C59.3534 48.8469 58.901 47.6457 58.5026 46.5683C57.5735 44.0089 56.8008 39.5703 58.6859 38.5578Z" fill="#374149"/>
<path d="M89.2734 65.5746C89.3273 65.8713 89.408 66.1533 89.516 66.4362V65.332L89.2734 65.5746Z" fill="#374149"/>
<path d="M52.7431 77.5525L51.9805 76.7852L51.9795 76.787L51.9659 76.7734C45.5745 84.4858 41.1683 90.7891 39.6172 94.5501L42.8005 97.7434C46.4396 96.2549 52.475 92.0873 59.855 86.0615C60.1067 85.8564 60.3458 85.6677 60.601 85.4591L60.5994 85.4573C60.6038 85.4535 60.6083 85.45 60.6139 85.4462L52.7431 77.5525Z" fill="#374149"/>
<path d="M119.929 19.9035L117.681 17.6495C117.058 17.0242 116.036 17.0232 115.412 17.6457L111.201 21.8434L110.238 20.8766C101.424 27.0819 88.6545 38.1479 75.2183 51.5457C67.6332 59.109 60.7934 66.4543 55.1562 73.0075L64.3883 82.2679C70.959 76.6494 78.3237 69.8314 85.9098 62.2672C99.3451 48.8704 110.449 36.1328 116.679 27.3374L115.715 26.3704L119.925 22.1727C120.551 21.5504 120.552 20.5288 119.929 19.9035Z" fill="#374149"/>
<path d="M40.728 98.3292L39.0241 96.6209L38.8099 96.4057L38.8043 96.4003L38.7916 96.3867C37.128 98.1637 35.7905 99.8006 34.9739 101.031C34.2232 102.149 33.9028 102.927 34.1555 103.18C34.4062 103.433 35.1853 103.115 36.3058 102.368C37.5089 101.573 39.1038 100.279 40.8368 98.6754C40.8743 98.6405 40.9101 98.6102 40.9476 98.5756H40.9467C40.9514 98.5709 40.9558 98.5673 40.9603 98.5627L40.728 98.3292Z" fill="#374149"/>
<path d="M114.467 41.1539L110.764 37.4414L107.837 40.3612L107.807 40.3905H107.808L107.794 40.4032L111.497 44.1157L94.9752 60.5897C93.3346 62.2259 93.3308 64.8809 94.9661 66.5215L116.431 45.12C116.982 44.5699 116.983 43.6781 116.433 43.1271L114.467 41.1539Z" fill="#374149"/>
</g>
<defs>
<clipPath id="clip0_4836_46019">
<rect width="120" height="120" fill="white" transform="translate(0.398438)"/>
</clipPath>
</defs>
</svg>
