<svg width="121" height="120" viewBox="0 0 121 120" fill="none" xmlns="http://www.w3.org/2000/svg">
<g clip-path="url(#clip0_4836_46078)">
<path d="M116.71 6.92578H29.001C27.0794 6.92578 25.5156 8.48766 25.5156 10.4093V55.8717C25.5156 57.7924 27.0794 59.3552 29.001 59.3552H116.71C118.629 59.3552 120.194 57.7924 120.194 55.8717V10.4093C120.194 8.48766 118.629 6.92578 116.71 6.92578ZM32.0964 39.5953V26.6855C38.853 25.5877 44.1787 20.2631 45.2753 13.5056H100.434C101.531 20.2631 106.855 25.5877 113.614 26.6855V39.5953C106.855 40.6922 101.531 46.017 100.434 52.7745H45.2753C44.1787 46.017 38.853 40.6922 32.0964 39.5953Z" fill="#374149"/>
<path d="M66.8023 27.521L69.4447 30.968L69.5178 31.0631L69.5424 31.1299H63.8727V33.4938H65.7741V34.1677H71.0377V36.1268H63.8727V38.49H71.0377V44.5259L71.0368 44.5444H71.0377V44.5819H74.6731V38.49H81.8408V36.1718V36.1645V36.1589V36.1526V36.1268H74.6731V34.1677H79.9355V33.4938H81.8408V31.1747V31.1674V31.162V31.1557V31.1299H78.2804L76.1619 31.1145L76.1663 31.0978L76.2643 30.968L78.9083 27.521L81.384 24.2873L82.6759 22.6219L82.913 22.3263H82.9046L82.914 22.3153H82.8927L82.914 22.2888H78.2347L74.7601 26.8252L74.3345 27.378L73.1471 28.9317L72.8923 29.2577L72.8466 29.3053L71.3755 27.378L70.9496 26.8252L67.4752 22.2888H64.5758L63.1255 22.2769L62.8262 22.2656L62.8318 22.2741H62.8161L62.829 22.2888H62.7969L66.8023 27.521Z" fill="#374149"/>
<path d="M82.8088 78.868L63.4445 92.9048C61.6215 94.1957 59.3143 94.5948 57.163 93.9934L40.7879 89.4112C39.6571 89.0945 38.8213 88.1404 38.6546 86.9788L38.4899 85.8252C38.2196 83.931 39.7906 82.2813 41.6968 82.4598L51.4838 83.3772C51.6742 83.3945 51.8546 83.3662 52.0412 83.3652C52.0421 83.3652 52.0421 83.3652 52.0421 83.3652H52.0431C55.4727 83.3598 58.2292 80.4072 57.8476 76.9162C57.7342 75.8798 56.9504 75.043 55.9231 74.8645L35.4931 71.3066C31.3396 70.5824 27.0824 71.7984 23.9373 74.6052L1.44854 94.6764C-0.0015403 95.9711 -0.222322 98.159 0.938538 99.7173L9.76885 111.562C11.0506 113.282 13.5125 113.579 15.1667 112.213L23.7324 105.136C25.7713 103.451 28.4959 102.848 31.0567 103.513L55.8217 109.952C56.0708 110.016 56.3235 110.021 56.5752 110.059C56.6713 110.074 56.7674 110.09 56.8653 110.101C57.909 110.218 58.9463 110.11 59.938 109.792C59.979 109.779 60.0203 109.767 60.0615 109.754C60.7895 109.506 61.4952 109.186 62.1261 108.714L89.3978 87.922C92.1296 85.8794 92.4153 81.8906 90.0039 79.4788C88.0749 77.5497 85.0363 77.2914 82.8088 78.868Z" fill="#374149"/>
</g>
<defs>
<clipPath id="clip0_4836_46078">
<rect width="120" height="120" fill="white" transform="translate(0.195312)"/>
</clipPath>
</defs>
</svg>
